<svg xmlns="http://www.w3.org/2000/svg" width="150" height="55" viewBox="0 0 90 35" fill="#602C82"><title>Almora</title><path d="M12.8 19.6v1.5c0 .6-.1 1.1-.2 1.6-.3 1.4-1 2.3-1.9 2.8-.9.5-1.5.7-1.8.6-.5.1-1 .2-1.5.2h-.8c-.9 0-1.6-.1-2.4-.3-.7-.2-1.3-.6-1.8-1s-.9-.9-1.2-1.5c-.3-.6-.4-1.2-.4-1.8 0-.6.1-1.2.4-1.8.3-.6.7-1 1.2-1.4.6-.4 1.3-.7 2.2-1 .9-.2 2-.4 3.4-.4h1.3V17c0-1-.3-1.7-.7-2.1-.5-.4-1-.6-1.6-.6-.6 0-1.2.1-1.7.2s-.9.2-1.3.4-.7.4-1 .6c-.3.2-.5.4-.6.5h-.2v-1.2c0-.4.1-.8.3-1.2.2-.4.5-.8.9-1.2.4-.3 1-.6 1.6-.8.7-.2 1.5-.3 2.4-.3.3 0 .8.1 1.6.3.7.2 1.4.6 1.9 1.1.6.5 1 1.2 1.4 2 .3.7.5 1.6.5 2.6.6 0 1-.2 1.3-.4.3-.3.5-.7.5-1.2 0-.3 0-.6-.1-.8-.1-.2-.1-.4-.2-.6v-.1h.7c.2 0 .4 0 .5.1.2.1.4.2.5.3.1.2.3.4.4.6.1.3.1.6.1.9 0 .6-.1 1.2-.3 1.6-.2.4-.5.8-.8 1.1-.3.3-.7.5-1.2.6-.5.1-.9.2-1.4.2zm-3.5.1H8c-.7 0-1.2 0-1.7.1s-.8.2-1.1.4c-.3.2-.5.3-.6.6-.1.2-.2.5-.2.8 0 .6.2 1 .6 1.3.4.3 1 .5 1.8.5 1.5 0 2.3-.7 2.3-2.2v-1.5zM21.3 7v14.3c0 .7.2 1.2.6 1.5.4.3 1 .4 1.9.4h1v.8c0 .8-.2 1.3-.6 1.7-.4.3-1 .5-1.8.5-1.5 0-2.6-.4-3.4-1.2-.8-.8-1.2-1.9-1.2-3.4V6.8c.2-1.7-.5-2.9-1.8-3.7.6-.5 1.4-.7 2.4-.7s1.8.4 2.3 1.1.6 1.5.6 2.5v1zm25.3 24.6c-1.6.1-2.7-.2-3.2-1s-.7-1.8-.7-3.2v-9.6c0-1.2-.2-2.1-.7-2.6-.5-.5-1.1-.8-1.9-.8-.7 0-1.3.3-1.8.8-.4.5-.7 1.3-.7 2.3V22h-1c-.8 0-1.4-.2-1.9-.7-.5-.4-.7-1.1-.7-2v-1.4c0-1.2-.2-2.1-.7-2.6-.5-.5-1.1-.8-1.9-.8-.7 0-1.3.3-1.7.8s-.7 1.3-.7 2.3v8.6h-1c-.7 0-1.4-.2-1.9-.7-.5-.5-.7-1.1-.7-2v-5.6c0-1 .1-1.9.4-2.7.3-.8.7-1.5 1.2-2.1.5-.6 1.2-1 2-1.3.8-.3 1.7-.5 2.8-.5.9 0 1.8.2 2.5.6.7.4 1.4 1 1.9 1.7.4-.7 1-1.2 1.7-1.6.7-.4 1.5-.6 2.4-.6.8 0 1.6.1 2.3.4.7.3 1.4.6 1.9 1.1.5.5 1 1.2 1.3 1.9.3.8.5 1.7.5 2.7v8.9c-.2 2.3.5 3.9 2 4.7l-1.7.5zm1.6-12.5c0-1.1.2-2.1.5-3.1s.8-1.8 1.4-2.5c.6-.7 1.4-1.3 2.2-1.7.9-.4 1.9-.6 3.1-.6 1.1 0 2.1.2 2.9.6.8.4 1.6.9 2.1 1.6.6.7 1 1.5 1.3 2.3.3.9.5 1.8.5 2.8 0 1.1-.2 2.1-.5 3.1s-.8 1.8-1.4 2.5c-.6.7-1.3 1.3-2.2 1.7-.9.4-1.9.6-3.1.6-1.1 0-2.1-.2-2.9-.6-.8-.4-1.6-.9-2.1-1.6-.6-.7-1-1.4-1.3-2.3-.3-.9-.5-1.9-.5-2.8zm6.9-10.9c0 .5-.2 1-.6 1.4s-.8.6-1.4.6c-.5 0-1-.2-1.3-.6-.4-.4-.6-.8-.6-1.4 0-.5.2-1 .6-1.3.4-.4.8-.6 1.3-.6s1 .2 1.4.6c.4.4.6.8.6 1.3zm3.4 10.9c0-1.5-.3-2.6-.8-3.4-.6-.8-1.4-1.2-2.6-1.2-1 0-1.8.4-2.3 1.2-.5.8-.8 1.8-.8 3 0 1.5.3 2.6.8 3.4.5.8 1.4 1.2 2.6 1.2 1.1 0 1.8-.4 2.3-1.2.5-.9.8-1.9.8-3zm2.4-10.9c0 .5-.2 1-.6 1.4-.4.4-.8.6-1.4.6s-1-.2-1.3-.6-.6-.8-.6-1.4c0-.5.2-1 .6-1.3.4-.4.8-.6 1.3-.6s1 .2 1.4.6c.4.4.6.8.6 1.3zm11.7 6.9l-.9-.3c-.3-.1-.7-.1-1.2-.1-.8 0-1.4.2-1.8.7-.4.5-.6 1.3-.6 2.4v8.3h-1c-.8 0-1.4-.2-1.9-.6-.5-.4-.7-1-.7-1.7v-6.7c0-.7.1-1.4.3-2.1.2-.7.5-1.3.9-1.8s1-.9 1.7-1.3c.7-.3 1.5-.5 2.4-.5.6 0 1 .1 1.4.2.4.1.7.3.9.6.2.2.4.5.5.8.1.3.2.6.2.8v1.3h-.2zm13.1 4.5v1.5c0 .6-.1 1.1-.2 1.6-.3 1.4-1 2.3-1.9 2.8-.9.5-1.5.7-1.8.6-.5.1-1 .2-1.5.2h-.7c-.9 0-1.6-.1-2.4-.3-.7-.2-1.3-.6-1.8-1s-.9-.9-1.2-1.5c-.3-.6-.4-1.2-.4-1.8 0-.6.1-1.2.4-1.8.2-.6.7-1 1.2-1.4.6-.4 1.3-.7 2.2-1 .9-.2 2-.4 3.4-.4h1.3V17c0-1-.2-1.7-.7-2.1-.5-.4-1-.6-1.6-.6-.6 0-1.2.1-1.7.2s-.9.2-1.3.4-.7.4-.9.6c-.3.2-.5.4-.6.5h-.1v-1.2c0-.4.1-.8.3-1.2.2-.4.5-.8.9-1.2.4-.3 1-.6 1.6-.8.7-.2 1.5-.3 2.4-.3.3 0 .8.1 1.6.3.7.2 1.4.6 1.9 1.1.6.5 1 1.2 1.4 2 .3.7.5 1.6.5 2.6.6 0 1-.2 1.3-.4.3-.3.5-.7.5-1.2 0-.3 0-.6-.1-.8-.1-.2-.1-.4-.2-.6v-.1h.9c.2 0 .4 0 .5.1.2.1.4.2.5.3.1.2.3.4.4.6.1.3.1.6.1.9 0 .6-.1 1.2-.3 1.6-.2.4-.5.8-.8 1.1-.3.3-.7.5-1.2.6-.5.1-.9.2-1.4.2h-.5zm-3.5.1h-1.3c-.7 0-1.2 0-1.7.1s-.8.2-1.1.4c-.3.2-.5.3-.6.6-.1.2-.2.5-.2.8 0 .6.2 1 .6 1.3.4.3 1 .5 1.8.5 1.5 0 2.3-.7 2.3-2.2v-1.5z"/></svg>