<svg xmlns="http://www.w3.org/2000/svg" viewBox="0 0 492.4 492.4"><path d="M385.784 125.7l-18.2 25-18.2-25c-2.7-3.7-7.5-5.1-11.7-3.4-.7.3-16.2 6.6-30.8 16.4-14.7-9.8-30.1-16.1-30.8-16.4-4.2-1.7-9-.3-11.7 3.4l-18.2 25-18.2-25c-2.7-3.7-7.5-5.1-11.7-3.4-.7.3-16.2 6.6-30.8 16.4-14.7-9.8-30.2-16.1-30.8-16.4-4.2-1.7-9-.3-11.7 3.4l-18.2 25-18.2-25c-2.7-3.7-7.5-5.1-11.7-3.4-.8.3-19.8 8-35.6 19.7-4.5 3.3-6.6 5.4-10.3 9.1-13.8 13.8-6.1 70.7-2.6 83.8 4.8 17.6 17.6 41.2 19.6 44.8 2.3 5.4 3.8 11.1 4.4 16.9l18 177c1.1 10.7 10 18.8 20.8 18.8h31.2c10.8 0 19.7-8.1 20.8-18.8l18-177c.6-5.8 2.1-11.5 4.4-16.9.3-.6 1-1.8 1.9-3.5.9 1.7 1.6 2.9 1.9 3.5 2.3 5.4 3.8 11.1 4.4 16.9l18 177c1.1 10.7 10 18.8 20.8 18.8h31.2c10.8 0 19.7-8.1 20.8-18.8l18-177c.6-5.8 2.1-11.5 4.4-16.9.3-.6 1-1.9 1.9-3.5.9 1.7 1.6 2.9 1.9 3.5 2.3 5.4 3.8 11.1 4.4 16.9l18 177c1.1 10.7 10 18.8 20.8 18.8h31.2c10.8 0 19.7-8.1 20.8-18.8l18-177c.6-5.8 2.1-11.5 4.4-16.9 2-3.6 14.8-27.2 19.6-44.8 3.6-13.1 11.2-70.1-2.6-83.8-3.7-3.7-5.8-5.8-10.3-9.1-15.9-11.7-34.8-19.4-35.6-19.7-4.2-1.6-9-.3-11.7 3.4zm-219.9 144.9c-.1.3-.3.5-.4.8-3.3 7.4-5.3 15.2-6.1 23.3l-18 177c-.1.6-.5 1-1.1 1h-31.2c-.6 0-1.1-.4-1.1-1l-18-177c-.8-8-2.9-15.9-6.1-23.3-.1-.3-.3-.6-.4-.8-.1-.2-13.6-24.4-18-40.8-4.9-18.1-6.3-57.8-2.3-64.9 3.2-3.2 4.6-4.5 7.8-6.9 8.3-6.1 18-11.1 24.3-14.2l21.5 29.6c1.9 2.6 4.8 4.1 8 4.1s6.1-1.5 8-4.1l21.5-29.6c4.1 2 9.7 4.8 15.3 8.2-12.7 15.1-5.3 70.1-1.8 83 1.6 5.9 4.1 12.5 6.8 18.8-4.5 9.3-8.6 16.7-8.7 16.8zm139.6-40.8c-4.4 16.3-17.9 40.5-18 40.8s-.3.5-.4.8c-3.3 7.4-5.3 15.2-6.1 23.3l-18 177c-.1.6-.5 1-1.1 1h-31.2c-.6 0-1.1-.4-1.1-1l-18-177c-.8-8-2.9-15.9-6.1-23.3-.1-.3-.3-.6-.4-.8-.1-.2-13.6-24.4-18-40.8-4.9-18.1-6.3-57.8-2.3-64.9 3.2-3.2 4.6-4.5 7.8-6.9 8.3-6.1 18-11.1 24.3-14.2l21.5 29.6c1.9 2.6 4.8 4.1 8 4.1s6.1-1.5 8-4.1l21.5-29.6c6.3 3 15.9 8 24.3 14.2 3.2 2.4 4.6 3.7 7.8 6.9 3.8 7.1 2.4 46.8-2.5 64.9zm123.7-64.9c4 7.1 2.7 46.8-2.3 64.9-4.4 16.3-17.9 40.5-18 40.8s-.3.5-.4.8c-3.3 7.4-5.3 15.2-6.1 23.3l-18 177c-.1.6-.5 1-1.1 1h-31.2c-.6 0-1.1-.4-1.1-1l-18-177c-.8-8-2.9-15.9-6.1-23.3-.1-.3-.3-.6-.4-.8 0-.1-4.1-7.4-8.6-16.8 2.7-6.3 5.2-12.9 6.8-18.8 3.5-12.8 10.9-67.8-1.8-83 5.7-3.4 11.2-6.2 15.3-8.2l21.5 29.6c1.9 2.6 4.8 4.1 8 4.1s6.1-1.5 8-4.1l21.5-29.6c6.3 3 15.9 8 24.3 14.2 3.2 2.4 4.5 3.7 7.7 6.9z" fill="#2c2f33"/><path d="M336.184 96.8c7.5 8.5 18 13.1 30.5 13.4H368.484c12.5-.3 23-4.9 30.6-13.4 16-18 13.7-48 13.3-51.8-1.6-33.1-24.7-44.9-43.9-44.9h-1.8c-19.2 0-42.3 11.8-43.9 44.9-.3 3.7-2.6 33.8 13.4 51.8zm6.4-50v-.6c1.1-22.9 15.6-26.3 24.1-26.3h1.8c8.6 0 23.1 3.4 24.1 26.3v.6c.7 6.8.6 26.8-8.5 36.9-3.9 4.4-9.3 6.6-16.4 6.7h-.3c-7.1-.1-12.5-2.3-16.5-6.7-8.9-10.2-9-30.1-8.3-36.9zM123.684 110.1h1.8c12.4-.3 22.9-4.9 30.5-13.4 16-18 13.7-48 13.3-51.8-1.6-33.1-24.7-44.9-43.9-44.9h-1.8c-19.2 0-42.3 11.8-43.9 44.9-.4 3.7-2.7 33.8 13.3 51.8 7.7 8.6 18.3 13.2 30.7 13.4zm-24.1-63.3v-.6c1-22.9 15.6-26.3 24.1-26.3h1.8c8.6 0 23.1 3.4 24.1 26.3v.6c0 .2 2.3 24.7-8.4 36.8-3.9 4.4-9.3 6.6-16.5 6.7h-.3c-7.1-.1-12.5-2.3-16.4-6.7-9-10.1-9.2-30-8.4-36.8zM245.084 110.1H246.884c12.5-.3 23-4.9 30.6-13.4 16-18 13.7-48 13.3-51.8-1.6-33.1-24.7-44.9-43.9-44.9h-1.8c-19.2 0-42.3 11.8-43.9 44.9-.4 3.7-2.7 33.8 13.3 51.8 7.7 8.5 18.2 13.2 30.6 13.4zm-24-63.3v-.6c1.1-22.9 15.6-26.3 24.1-26.3h1.8c8.6 0 23.1 3.4 24.1 26.3v.6c0 .2 2.3 24.7-8.4 36.8-3.9 4.4-9.3 6.6-16.5 6.7h-.3c-7.1-.1-12.5-2.3-16.5-6.7-8.9-10.1-9-30-8.3-36.8z" fill="#3c92ca"/></svg>