<?xml version="1.0" encoding="utf-8"?>
<!-- Generator: Adobe Illustrator 18.0.0, SVG Export Plug-In . SVG Version: 6.00 Build 0)  -->
<!DOCTYPE svg PUBLIC "-//W3C//DTD SVG 1.1//EN" "http://www.w3.org/Graphics/SVG/1.1/DTD/svg11.dtd">
<svg version="1.1" id="Layer_1" xmlns="http://www.w3.org/2000/svg" xmlns:xlink="http://www.w3.org/1999/xlink" x="0px" y="0px"
	 width="299.2px" height="83.5px" viewBox="0 0 299.2 83.5" style="enable-background:new 0 0 299.2 83.5;" xml:space="preserve">
<g>
	<g>
		<polygon style="fill:#E21F26;" points="35.8,8.2 44.8,0 35.8,0 		"/>
		<polygon style="fill:#A8D7D8;" points="0.2,8.2 9.1,8.2 0.2,0 		"/>
		<polygon style="fill:#ED7D23;" points="0.2,0 9.1,8.2 18,0 		"/>
		<polygon style="fill:#5ABDBE;" points="18,0 26.9,8.2 35.8,8.2 26.9,0 		"/>
		<polygon style="fill:#E21F26;" points="18,0 18,8.2 26.9,8.2 		"/>
		<polygon style="fill:#F8BB16;" points="44.8,0 44.8,8.2 53.7,8.2 		"/>
		<polygon style="fill:#E21F26;" points="0.2,33 0.2,24.8 9.1,24.8 		"/>
		<polygon style="fill:#5ABDBE;" points="9.1,33 18,33 18,24.8 		"/>
		<polygon style="fill:#ED7D23;" points="9.1,16.5 9.1,24.8 18,16.5 		"/>
		<polygon style="fill:#5ABDBE;" points="35.8,41.3 44.7,41.3 35.8,33 		"/>
		<polygon style="fill:#A8D7D8;" points="26.9,33 35.8,33 35.8,41.3 		"/>
		<polygon style="fill:#E21F26;" points="18,41.3 9.1,33 9.1,41.3 		"/>
		<polygon style="fill:#F8BB16;" points="9.1,33 18,41.3 18,33 		"/>
		<rect x="0.2" y="33" style="fill:#F8BB16;" width="8.9" height="8.3"/>
		<polygon style="fill:#E21F26;" points="26.9,41.3 17.9,41.3 26.9,33 		"/>
		<polygon style="fill:#E21F26;" points="18,57.8 9.1,57.8 18,49.5 		"/>
		<polygon style="fill:#5ABDBE;" points="9.1,57.8 9.1,66 0.2,66 		"/>
		<polygon style="fill:#ED7D23;" points="18,57.8 18,66 9.1,66 		"/>
		<polygon style="fill:#A8D7D8;" points="9.1,57.8 9.1,66 18,57.8 		"/>
		<polygon style="fill:#E21F26;" points="0.2,49.5 0.2,57.8 9.1,49.5 		"/>
		<rect x="26.9" y="41.3" style="fill:#ED7D23;" width="8.9" height="8.3"/>
		<polygon style="fill:#F8BB16;" points="35.8,49.5 35.8,41.3 44.7,41.3 		"/>
		<polygon style="fill:#ED7D23;" points="18,49.5 9.1,41.3 18,41.3 		"/>
		<polygon style="fill:#5ABDBE;" points="18,49.5 9.1,41.3 0.2,49.5 		"/>
		<polygon style="fill:#5ABDBE;" points="26.9,49.5 26.9,41.3 17.9,49.5 		"/>
		<polygon style="fill:#ED7D23;" points="0.2,66 0.2,74.3 9.1,74.3 		"/>
		<polygon style="fill:#F8BB16;" points="0.2,66 9.1,74.3 18,74.3 18,66 		"/>
		<polygon style="fill:#E21F26;" points="9.1,82.5 18,74.3 18,82.5 		"/>
		<polygon style="fill:#F8BB16;" points="0.2,57.8 9.1,49.5 9.1,57.8 		"/>
		<rect x="0.2" y="74.3" style="fill:#5ABDBE;" width="8.9" height="8.3"/>
		<rect x="18" y="8.2" style="fill:#F8BB16;" width="8.9" height="8.3"/>
		<rect x="35.8" y="8.2" style="fill:#ED7D23;" width="8.9" height="8.3"/>
		<polygon style="fill:#5ABDBE;" points="44.8,8.2 53.7,8.2 44.8,16.5 		"/>
		<polygon style="fill:#A8D7D8;" points="26.9,16.6 26.9,8.2 35.8,8.2 		"/>
		<rect x="0.2" y="8.2" style="fill:#E21F26;" width="8.9" height="8.3"/>
		<polygon style="fill:#E21F26;" points="9.1,16.5 18,8.2 18,16.5 		"/>
		<polygon style="fill:#F8BB16;" points="9.1,16.5 9.1,8.2 18,8.2 		"/>
	</g>
	<g>
		<path style="fill:#000;" d="M77.8,47.6h13.4c12.4,0,19.6,7.2,19.6,17.2v0.1c0,10-7.3,17.5-19.8,17.5H77.8V47.6z M91.4,73.9
			c5.8,0,9.6-3.2,9.6-8.8V65c0-5.6-3.8-8.8-9.6-8.8h-3.9v17.7H91.4z"/>
		<path style="fill:#000;" d="M159,47.6h9.7v34.8H159V47.6z"/>
		<path style="fill:#000;" d="M178.1,47.6h9.6V74h16.9v8.5h-26.5V47.6z"/>
		<path style="fill:#000;" d="M215.3,69.4l-13.2-21.8h11l7.2,12.7l7.2-12.7h10.8L225,69.3v13.2h-9.7V69.4z"/>
		<polygon style="fill:#000;" points="137.7,47.4 128.4,47.4 113.6,82.5 123.7,82.5 129.1,68.7 129,68.7 132.9,58.8 136.8,68.7 
			136.8,68.7 142.1,82.5 152.5,82.5 		"/>
	</g>
	<g>
		<path style="fill:#000;" d="M77.8,1.1h27.8v8.5H87.5v5.9h16.5v8H87.5v12.4h-9.6V1.1z"/>
		<path style="fill:#000;" d="M148.1,18.6L148.1,18.6c0-10.2,7.8-18.2,18.3-18.2c7.1,0,11.7,3,14.8,7.3l-7.3,5.6
			c-2-2.5-4.3-4.1-7.6-4.1c-4.9,0-8.3,4.1-8.3,9.2v0.1c0,5.2,3.4,9.3,8.3,9.3c3.6,0,5.8-1.7,7.9-4.2l7.3,5.2
			c-3.3,4.5-7.7,7.9-15.4,7.9C156.1,36.6,148.1,29,148.1,18.6z"/>
		<path style="fill:#000;" d="M197.1,9.6h-10.4V1.1h30.5v8.5h-10.4v26.4h-9.6V9.6z"/>
		<path style="fill:#000;" d="M221.7,18.6L221.7,18.6c0-10.1,8.1-18.2,18.8-18.2c10.7,0,18.7,8,18.7,18v0.1
			c0,10-8.1,18.1-18.8,18.1C229.6,36.6,221.7,28.6,221.7,18.6z M249.3,18.6L249.3,18.6c0-5.1-3.6-9.5-8.9-9.5
			c-5.3,0-8.8,4.3-8.8,9.3v0.1c0,5,3.6,9.4,8.9,9.4C245.8,27.9,249.3,23.6,249.3,18.6z"/>
		<polygon style="fill:#000;" points="130.4,0.9 121.1,0.9 106.2,35.9 116.4,35.9 121.8,22.2 121.7,22.2 125.6,12.3 129.5,22.2 
			129.5,22.2 134.8,35.9 145.2,35.9 		"/>
		<path style="fill:#000;" d="M290.9,23.8c4.3-1.8,7.2-5.4,7.2-10.7V13c0-3.4-1-6.1-3.1-8.1c-2.3-2.4-6-3.8-11.3-3.8h-16.5v34.8
			h9.6V25.4v-7.6V9.5h3.3h3c3.2,0,5.2,1.4,5.2,4.1v0.1c0,2.5-1.9,4.1-5.2,4.1h-2.1v7.6l7,10.5h11.1L290.9,23.8z"/>
	</g>
</g>
</svg>
